<svg width="33" height="44" viewBox="0 0 33 44" fill="none" xmlns="http://www.w3.org/2000/svg">
<g clip-path="url(#clip0_301_2)">
<path d="M14.8043 43.1123C2.31773 25.0105 0 23.1527 0 16.5C0 7.38727 7.38727 0 16.5 0C25.6127 0 33 7.38727 33 16.5C33 23.1527 30.6823 25.0105 18.1957 43.1123C17.3763 44.296 15.6236 44.2959 14.8043 43.1123ZM16.5 23.375C20.297 23.375 23.375 20.297 23.375 16.5C23.375 12.703 20.297 9.625 16.5 9.625C12.703 9.625 9.625 12.703 9.625 16.5C9.625 20.297 12.703 23.375 16.5 23.375Z" fill="limegreen"/>
</g>
<defs>
<clipPath id="clip0_301_2">
<rect width="33" height="44" fill="none"/>
</clipPath>
</defs>
</svg>
